<mxfile host="app.diagrams.net" modified="2021-06-21T11:49:05.826Z" agent="5.0 (Macintosh; Intel Mac OS X 10_15_7) AppleWebKit/537.36 (KHTML, like Gecko) Chrome/91.0.4472.106 Safari/537.36" etag="XW58NErxQCc7nikDIvXy" version="14.8.0" type="github">
  <diagram id="C5RBs43oDa-KdzZeNtuy" name="Page-1">
    <mxGraphModel dx="8842" dy="4992" grid="1" gridSize="10" guides="1" tooltips="1" connect="1" arrows="1" fold="1" page="1" pageScale="1" pageWidth="827" pageHeight="1169" math="0" shadow="0">
      <root>
        <mxCell id="WIyWlLk6GJQsqaUBKTNV-0" />
        <mxCell id="WIyWlLk6GJQsqaUBKTNV-1" parent="WIyWlLk6GJQsqaUBKTNV-0" />
        <UserObject label="숫자 컨버터&#xa;&#xa;" lucidchartObjectId="KyWNMwYH3WZy" id="LHgCffm70DckrtsDiC9W-60">
          <mxCell style="html=1;overflow=block;blockSpacing=1;whiteSpace=wrap;;whiteSpace=wrap;fontSize=16.7;fontFamily=Liberation Serif;fontColor=#333333;spacing=9;strokeColor=#5e5e5e;strokeOpacity=100;rounded=1;absoluteArcSize=1;arcSize=9;strokeWidth=2.3;" vertex="1" parent="WIyWlLk6GJQsqaUBKTNV-1">
            <mxGeometry x="214" y="30" width="120" height="120" as="geometry" />
          </mxCell>
        </UserObject>
        <UserObject label="." lucidchartObjectId="nuVNDIet8_oO" id="LHgCffm70DckrtsDiC9W-61">
          <mxCell style="html=1;overflow=block;blockSpacing=1;whiteSpace=wrap;;whiteSpace=wrap;fontSize=16.7;fontFamily=Liberation Serif;fontColor=#333333;spacing=3.8;strokeColor=#5E5E5E;rounded=1;absoluteArcSize=1;arcSize=9;strokeWidth=2.3;" vertex="1" parent="WIyWlLk6GJQsqaUBKTNV-1">
            <mxGeometry x="214" y="90" width="60" height="60" as="geometry" />
          </mxCell>
        </UserObject>
        <UserObject label="APP START" lucidchartObjectId="mgVNk5NFGN9b" id="LHgCffm70DckrtsDiC9W-62">
          <mxCell style="html=1;overflow=block;blockSpacing=1;whiteSpace=wrap;rounded=1;arcSize=50;whiteSpace=wrap;fontSize=16.7;fontFamily=Liberation Serif;fontColor=#333333;spacing=3.8;strokeColor=#5e5e5e;strokeOpacity=100;strokeWidth=2.3;" vertex="1" parent="WIyWlLk6GJQsqaUBKTNV-1">
            <mxGeometry x="638" y="45" width="120" height="60" as="geometry" />
          </mxCell>
        </UserObject>
        <UserObject label="숫자" lucidchartObjectId="FrVNn2fYk4xj" id="LHgCffm70DckrtsDiC9W-63">
          <mxCell style="html=1;overflow=block;blockSpacing=1;whiteSpace=wrap;;whiteSpace=wrap;fontSize=16.7;fontFamily=Liberation Serif;fontColor=#333333;spacing=3.8;strokeColor=#5E5E5E;rounded=1;absoluteArcSize=1;arcSize=9;strokeWidth=2.3;" vertex="1" parent="WIyWlLk6GJQsqaUBKTNV-1">
            <mxGeometry x="60" y="345" width="60" height="60" as="geometry" />
          </mxCell>
        </UserObject>
        <UserObject label="Input" lucidchartObjectId="VtVNoueXyoD4" id="LHgCffm70DckrtsDiC9W-64">
          <mxCell style="html=1;overflow=block;blockSpacing=1;whiteSpace=wrap;shape=parallelogram;perimeter=parallelogramPerimeter;anchorPointDirection=0;whiteSpace=wrap;fontSize=16.7;fontFamily=Liberation Serif;fontColor=#333333;spacing=3.8;strokeColor=#5e5e5e;strokeOpacity=100;rounded=1;absoluteArcSize=1;arcSize=9;strokeWidth=2.3;" vertex="1" parent="WIyWlLk6GJQsqaUBKTNV-1">
            <mxGeometry x="639" y="165" width="120" height="75" as="geometry" />
          </mxCell>
        </UserObject>
        <UserObject label="" lucidchartObjectId="9tVNHRGeXCmq" id="LHgCffm70DckrtsDiC9W-65">
          <mxCell style="html=1;jettySize=18;whiteSpace=wrap;fontSize=13;strokeColor=#5E5E5E;strokeWidth=1.5;rounded=1;arcSize=12;edgeStyle=orthogonalEdgeStyle;startArrow=none;;endArrow=block;endFill=1;;exitX=0.5;exitY=1.019;exitPerimeter=0;entryX=0.493;entryY=-0.015;entryPerimeter=0;" edge="1" parent="WIyWlLk6GJQsqaUBKTNV-1" source="LHgCffm70DckrtsDiC9W-62" target="LHgCffm70DckrtsDiC9W-64">
            <mxGeometry width="100" height="100" relative="1" as="geometry">
              <Array as="points" />
            </mxGeometry>
          </mxCell>
        </UserObject>
        <UserObject label="+-*/" lucidchartObjectId="huVNpf~aIurz" id="LHgCffm70DckrtsDiC9W-66">
          <mxCell style="html=1;overflow=block;blockSpacing=1;whiteSpace=wrap;;whiteSpace=wrap;fontSize=16.7;fontFamily=Liberation Serif;fontColor=#333333;spacing=3.8;strokeColor=#5E5E5E;rounded=1;absoluteArcSize=1;arcSize=9;strokeWidth=2.3;" vertex="1" parent="WIyWlLk6GJQsqaUBKTNV-1">
            <mxGeometry x="1140" y="345" width="60" height="60" as="geometry" />
          </mxCell>
        </UserObject>
        <UserObject label="+/-" lucidchartObjectId="JuVNcj0YmX0R" id="LHgCffm70DckrtsDiC9W-67">
          <mxCell style="html=1;overflow=block;blockSpacing=1;whiteSpace=wrap;;whiteSpace=wrap;fontSize=16.7;fontFamily=Liberation Serif;fontColor=#333333;spacing=3.8;strokeColor=#5E5E5E;rounded=1;absoluteArcSize=1;arcSize=9;strokeWidth=2.3;" vertex="1" parent="WIyWlLk6GJQsqaUBKTNV-1">
            <mxGeometry x="274" y="90" width="60" height="60" as="geometry" />
          </mxCell>
        </UserObject>
        <UserObject label="=" lucidchartObjectId="VuVNXW7MkGjs" id="LHgCffm70DckrtsDiC9W-68">
          <mxCell style="html=1;overflow=block;blockSpacing=1;whiteSpace=wrap;;whiteSpace=wrap;fontSize=16.7;fontFamily=Liberation Serif;fontColor=#333333;spacing=3.8;strokeColor=#5E5E5E;rounded=1;absoluteArcSize=1;arcSize=9;strokeWidth=2.3;" vertex="1" parent="WIyWlLk6GJQsqaUBKTNV-1">
            <mxGeometry x="1680" y="345" width="60" height="60" as="geometry" />
          </mxCell>
        </UserObject>
        <mxCell id="LHgCffm70DckrtsDiC9W-69" value="" style="group;dropTarget=0;" vertex="1" parent="WIyWlLk6GJQsqaUBKTNV-1">
          <mxGeometry x="30" y="30" width="120" height="120" as="geometry" />
        </mxCell>
        <UserObject label="취소&#xa;&#xa;" lucidchartObjectId="tyWNK231tR8q" id="LHgCffm70DckrtsDiC9W-70">
          <mxCell style="html=1;overflow=block;blockSpacing=1;whiteSpace=wrap;;whiteSpace=wrap;fontSize=16.7;fontFamily=Liberation Serif;fontColor=#333333;spacing=3.8;strokeColor=#5e5e5e;strokeOpacity=100;rounded=1;absoluteArcSize=1;arcSize=9;strokeWidth=2.3;" vertex="1" parent="LHgCffm70DckrtsDiC9W-69">
            <mxGeometry width="120" height="120" as="geometry" />
          </mxCell>
        </UserObject>
        <UserObject label="AC" lucidchartObjectId="uuVNdAeCr.8q" id="LHgCffm70DckrtsDiC9W-71">
          <mxCell style="html=1;overflow=block;blockSpacing=1;whiteSpace=wrap;;whiteSpace=wrap;fontSize=16.7;fontFamily=Liberation Serif;fontColor=#333333;spacing=3.8;strokeColor=#5E5E5E;rounded=1;absoluteArcSize=1;arcSize=9;strokeWidth=2.3;" vertex="1" parent="LHgCffm70DckrtsDiC9W-69">
            <mxGeometry y="60" width="60" height="60" as="geometry" />
          </mxCell>
        </UserObject>
        <UserObject label="CE" lucidchartObjectId="CuVNtVET2As3" id="LHgCffm70DckrtsDiC9W-72">
          <mxCell style="html=1;overflow=block;blockSpacing=1;whiteSpace=wrap;;whiteSpace=wrap;fontSize=16.7;fontFamily=Liberation Serif;fontColor=#333333;spacing=3.8;strokeColor=#5E5E5E;rounded=1;absoluteArcSize=1;arcSize=9;strokeWidth=2.3;" vertex="1" parent="LHgCffm70DckrtsDiC9W-69">
            <mxGeometry x="60" y="60" width="60" height="60" as="geometry" />
          </mxCell>
        </UserObject>
        <UserObject label="취소" lucidchartObjectId="pzWN5SUizB4i" id="LHgCffm70DckrtsDiC9W-73">
          <mxCell style="html=1;overflow=block;blockSpacing=1;whiteSpace=wrap;;whiteSpace=wrap;fontSize=16.7;fontFamily=Liberation Serif;fontColor=#333333;spacing=3.8;strokeColor=#5e5e5e;strokeOpacity=100;rounded=1;absoluteArcSize=1;arcSize=9;strokeWidth=2.3;" vertex="1" parent="WIyWlLk6GJQsqaUBKTNV-1">
            <mxGeometry x="-555" y="345" width="60" height="60" as="geometry" />
          </mxCell>
        </UserObject>
        <UserObject label="" lucidchartObjectId="uzWN5B541Nzq" id="LHgCffm70DckrtsDiC9W-74">
          <mxCell style="html=1;jettySize=18;whiteSpace=wrap;fontSize=13;strokeColor=#5E5E5E;strokeWidth=1.5;rounded=1;arcSize=12;edgeStyle=orthogonalEdgeStyle;startArrow=none;;endArrow=block;endFill=1;;exitX=0.074;exitY=0.5;exitPerimeter=0;entryX=0.5;entryY=-0.019;entryPerimeter=0;" edge="1" parent="WIyWlLk6GJQsqaUBKTNV-1" source="LHgCffm70DckrtsDiC9W-64" target="LHgCffm70DckrtsDiC9W-73">
            <mxGeometry width="100" height="100" relative="1" as="geometry">
              <Array as="points" />
            </mxGeometry>
          </mxCell>
        </UserObject>
        <UserObject label="" lucidchartObjectId="WzWNBxfU9d6w" id="LHgCffm70DckrtsDiC9W-75">
          <mxCell style="html=1;jettySize=18;whiteSpace=wrap;fontSize=13;strokeColor=#5E5E5E;strokeWidth=1.5;rounded=1;arcSize=12;edgeStyle=orthogonalEdgeStyle;startArrow=none;;endArrow=block;endFill=1;;exitX=0.5;exitY=1.015;exitPerimeter=0;entryX=0.5;entryY=-0.019;entryPerimeter=0;" edge="1" parent="WIyWlLk6GJQsqaUBKTNV-1" source="LHgCffm70DckrtsDiC9W-64" target="LHgCffm70DckrtsDiC9W-63">
            <mxGeometry width="100" height="100" relative="1" as="geometry">
              <Array as="points" />
            </mxGeometry>
          </mxCell>
        </UserObject>
        <UserObject label="" lucidchartObjectId="5zWNppFRCRT6" id="LHgCffm70DckrtsDiC9W-76">
          <mxCell style="html=1;jettySize=18;whiteSpace=wrap;fontSize=13;strokeColor=#5E5E5E;strokeWidth=1.5;rounded=1;arcSize=12;edgeStyle=orthogonalEdgeStyle;startArrow=none;;endArrow=block;endFill=1;;exitX=0.5;exitY=1.015;exitPerimeter=0;entryX=0.5;entryY=-0.019;entryPerimeter=0;" edge="1" parent="WIyWlLk6GJQsqaUBKTNV-1" source="LHgCffm70DckrtsDiC9W-64" target="LHgCffm70DckrtsDiC9W-66">
            <mxGeometry width="100" height="100" relative="1" as="geometry">
              <Array as="points" />
            </mxGeometry>
          </mxCell>
        </UserObject>
        <UserObject label="" lucidchartObjectId="8zWNEKR9Epkz" id="LHgCffm70DckrtsDiC9W-77">
          <mxCell style="html=1;jettySize=18;whiteSpace=wrap;fontSize=13;strokeColor=#5E5E5E;strokeWidth=1.5;rounded=1;arcSize=12;edgeStyle=orthogonalEdgeStyle;startArrow=none;;endArrow=block;endFill=1;;exitX=0.926;exitY=0.5;exitPerimeter=0;entryX=0.5;entryY=-0.019;entryPerimeter=0;" edge="1" parent="WIyWlLk6GJQsqaUBKTNV-1" source="LHgCffm70DckrtsDiC9W-64" target="LHgCffm70DckrtsDiC9W-68">
            <mxGeometry width="100" height="100" relative="1" as="geometry">
              <Array as="points" />
            </mxGeometry>
          </mxCell>
        </UserObject>
        <UserObject label="숫자 컨버터" lucidchartObjectId="iAWNhnu0p_EX" id="LHgCffm70DckrtsDiC9W-78">
          <mxCell style="html=1;overflow=block;blockSpacing=1;whiteSpace=wrap;;whiteSpace=wrap;fontSize=16.7;fontFamily=Liberation Serif;fontColor=#333333;spacing=3.8;strokeColor=#5e5e5e;strokeOpacity=100;rounded=1;absoluteArcSize=1;arcSize=9;strokeWidth=2.3;" vertex="1" parent="WIyWlLk6GJQsqaUBKTNV-1">
            <mxGeometry x="668" y="345" width="60" height="60" as="geometry" />
          </mxCell>
        </UserObject>
        <UserObject label="" lucidchartObjectId="yAWNPv2~ir_E" id="LHgCffm70DckrtsDiC9W-79">
          <mxCell style="html=1;jettySize=18;whiteSpace=wrap;fontSize=13;strokeColor=#5E5E5E;strokeWidth=1.5;rounded=1;arcSize=12;edgeStyle=orthogonalEdgeStyle;startArrow=none;;endArrow=block;endFill=1;;exitX=0.5;exitY=1.015;exitPerimeter=0;entryX=0.5;entryY=-0.019;entryPerimeter=0;" edge="1" parent="WIyWlLk6GJQsqaUBKTNV-1" source="LHgCffm70DckrtsDiC9W-64" target="LHgCffm70DckrtsDiC9W-78">
            <mxGeometry width="100" height="100" relative="1" as="geometry">
              <Array as="points" />
            </mxGeometry>
          </mxCell>
        </UserObject>
        <UserObject label="숫자" lucidchartObjectId="VAWNCtU7L_xC" id="LHgCffm70DckrtsDiC9W-80">
          <mxCell style="html=1;overflow=block;blockSpacing=1;whiteSpace=wrap;;whiteSpace=wrap;fontSize=16.7;fontFamily=Liberation Serif;fontColor=#333333;spacing=3.8;strokeColor=#5E5E5E;rounded=1;absoluteArcSize=1;arcSize=9;strokeWidth=2.3;" vertex="1" parent="WIyWlLk6GJQsqaUBKTNV-1">
            <mxGeometry x="-645" y="480" width="60" height="60" as="geometry" />
          </mxCell>
        </UserObject>
        <UserObject label="+-*/" lucidchartObjectId="VAWNjOx-.~yW" id="LHgCffm70DckrtsDiC9W-81">
          <mxCell style="html=1;overflow=block;blockSpacing=1;whiteSpace=wrap;;whiteSpace=wrap;fontSize=16.7;fontFamily=Liberation Serif;fontColor=#333333;spacing=3.8;strokeColor=#5E5E5E;rounded=1;absoluteArcSize=1;arcSize=9;strokeWidth=2.3;" vertex="1" parent="WIyWlLk6GJQsqaUBKTNV-1">
            <mxGeometry x="-465" y="480" width="60" height="60" as="geometry" />
          </mxCell>
        </UserObject>
        <UserObject label="=" lucidchartObjectId="VAWNIYZVF3Uf" id="LHgCffm70DckrtsDiC9W-82">
          <mxCell style="html=1;overflow=block;blockSpacing=1;whiteSpace=wrap;;whiteSpace=wrap;fontSize=16.7;fontFamily=Liberation Serif;fontColor=#333333;spacing=3.8;strokeColor=#5E5E5E;rounded=1;absoluteArcSize=1;arcSize=9;strokeWidth=2.3;" vertex="1" parent="WIyWlLk6GJQsqaUBKTNV-1">
            <mxGeometry x="-375" y="480" width="60" height="60" as="geometry" />
          </mxCell>
        </UserObject>
        <UserObject label="취소" lucidchartObjectId="VAWN3B7jyMYn" id="LHgCffm70DckrtsDiC9W-83">
          <mxCell style="html=1;overflow=block;blockSpacing=1;whiteSpace=wrap;;whiteSpace=wrap;fontSize=16.7;fontFamily=Liberation Serif;fontColor=#333333;spacing=3.8;strokeColor=#5e5e5e;strokeOpacity=100;rounded=1;absoluteArcSize=1;arcSize=9;strokeWidth=2.3;" vertex="1" parent="WIyWlLk6GJQsqaUBKTNV-1">
            <mxGeometry x="-735" y="480" width="60" height="60" as="geometry" />
          </mxCell>
        </UserObject>
        <UserObject label="숫자 컨버터" lucidchartObjectId="VAWNYlmkgUb." id="LHgCffm70DckrtsDiC9W-84">
          <mxCell style="html=1;overflow=block;blockSpacing=1;whiteSpace=wrap;;whiteSpace=wrap;fontSize=16.7;fontFamily=Liberation Serif;fontColor=#333333;spacing=3.8;strokeColor=#5e5e5e;strokeOpacity=100;rounded=1;absoluteArcSize=1;arcSize=9;strokeWidth=2.3;" vertex="1" parent="WIyWlLk6GJQsqaUBKTNV-1">
            <mxGeometry x="-555" y="480" width="60" height="60" as="geometry" />
          </mxCell>
        </UserObject>
        <UserObject label="" lucidchartObjectId="YBWNUhkeMUw2" id="LHgCffm70DckrtsDiC9W-85">
          <mxCell style="html=1;jettySize=18;whiteSpace=wrap;fontSize=13;strokeColor=#5E5E5E;strokeWidth=1.5;rounded=1;arcSize=12;edgeStyle=orthogonalEdgeStyle;startArrow=none;;endArrow=block;endFill=1;;exitX=0.5;exitY=1.019;exitPerimeter=0;entryX=0.5;entryY=-0.019;entryPerimeter=0;" edge="1" parent="WIyWlLk6GJQsqaUBKTNV-1" source="LHgCffm70DckrtsDiC9W-63" target="LHgCffm70DckrtsDiC9W-90">
            <mxGeometry width="100" height="100" relative="1" as="geometry">
              <Array as="points" />
            </mxGeometry>
          </mxCell>
        </UserObject>
        <UserObject label="숫자" lucidchartObjectId="-CWNdIuwsPOV" id="LHgCffm70DckrtsDiC9W-86">
          <mxCell style="html=1;overflow=block;blockSpacing=1;whiteSpace=wrap;;whiteSpace=wrap;fontSize=16.7;fontFamily=Liberation Serif;fontColor=#333333;spacing=3.8;strokeColor=#5E5E5E;rounded=1;absoluteArcSize=1;arcSize=9;strokeWidth=2.3;" vertex="1" parent="WIyWlLk6GJQsqaUBKTNV-1">
            <mxGeometry x="-30" y="480" width="60" height="60" as="geometry" />
          </mxCell>
        </UserObject>
        <UserObject label="+-*/" lucidchartObjectId="-CWNX-4qVxLB" id="LHgCffm70DckrtsDiC9W-87">
          <mxCell style="html=1;overflow=block;blockSpacing=1;whiteSpace=wrap;;whiteSpace=wrap;fontSize=16.7;fontFamily=Liberation Serif;fontColor=#333333;spacing=3.8;strokeColor=#5E5E5E;rounded=1;absoluteArcSize=1;arcSize=9;strokeWidth=2.3;" vertex="1" parent="WIyWlLk6GJQsqaUBKTNV-1">
            <mxGeometry x="150" y="480" width="60" height="60" as="geometry" />
          </mxCell>
        </UserObject>
        <UserObject label="=" lucidchartObjectId="-CWNwePAIb5S" id="LHgCffm70DckrtsDiC9W-88">
          <mxCell style="html=1;overflow=block;blockSpacing=1;whiteSpace=wrap;;whiteSpace=wrap;fontSize=16.7;fontFamily=Liberation Serif;fontColor=#333333;spacing=3.8;strokeColor=#5E5E5E;rounded=1;absoluteArcSize=1;arcSize=9;strokeWidth=2.3;" vertex="1" parent="WIyWlLk6GJQsqaUBKTNV-1">
            <mxGeometry x="240" y="480" width="60" height="60" as="geometry" />
          </mxCell>
        </UserObject>
        <UserObject label="취소" lucidchartObjectId="-CWNaBy1x~v." id="LHgCffm70DckrtsDiC9W-89">
          <mxCell style="html=1;overflow=block;blockSpacing=1;whiteSpace=wrap;;whiteSpace=wrap;fontSize=16.7;fontFamily=Liberation Serif;fontColor=#333333;spacing=3.8;strokeColor=#5e5e5e;strokeOpacity=100;rounded=1;absoluteArcSize=1;arcSize=9;strokeWidth=2.3;" vertex="1" parent="WIyWlLk6GJQsqaUBKTNV-1">
            <mxGeometry x="-120" y="480" width="60" height="60" as="geometry" />
          </mxCell>
        </UserObject>
        <UserObject label="숫자 컨버터" lucidchartObjectId="-CWNiwfdcrNu" id="LHgCffm70DckrtsDiC9W-90">
          <mxCell style="html=1;overflow=block;blockSpacing=1;whiteSpace=wrap;;whiteSpace=wrap;fontSize=16.7;fontFamily=Liberation Serif;fontColor=#333333;spacing=3.8;strokeColor=#5e5e5e;strokeOpacity=100;rounded=1;absoluteArcSize=1;arcSize=9;strokeWidth=2.3;" vertex="1" parent="WIyWlLk6GJQsqaUBKTNV-1">
            <mxGeometry x="60" y="480" width="60" height="60" as="geometry" />
          </mxCell>
        </UserObject>
        <UserObject label="숫자" lucidchartObjectId="pDWNaYc4GsOQ" id="LHgCffm70DckrtsDiC9W-91">
          <mxCell style="html=1;overflow=block;blockSpacing=1;whiteSpace=wrap;;whiteSpace=wrap;fontSize=16.7;fontFamily=Liberation Serif;fontColor=#333333;spacing=3.8;strokeColor=#5E5E5E;rounded=1;absoluteArcSize=1;arcSize=9;strokeWidth=2.3;" vertex="1" parent="WIyWlLk6GJQsqaUBKTNV-1">
            <mxGeometry x="585" y="480" width="60" height="60" as="geometry" />
          </mxCell>
        </UserObject>
        <UserObject label="+-*/" lucidchartObjectId="pDWNeIke1l2_" id="LHgCffm70DckrtsDiC9W-92">
          <mxCell style="html=1;overflow=block;blockSpacing=1;whiteSpace=wrap;;whiteSpace=wrap;fontSize=16.7;fontFamily=Liberation Serif;fontColor=#333333;spacing=3.8;strokeColor=#5E5E5E;rounded=1;absoluteArcSize=1;arcSize=9;strokeWidth=2.3;" vertex="1" parent="WIyWlLk6GJQsqaUBKTNV-1">
            <mxGeometry x="765" y="480" width="60" height="60" as="geometry" />
          </mxCell>
        </UserObject>
        <UserObject label="=" lucidchartObjectId="pDWNMKfy0GQz" id="LHgCffm70DckrtsDiC9W-93">
          <mxCell style="html=1;overflow=block;blockSpacing=1;whiteSpace=wrap;;whiteSpace=wrap;fontSize=16.7;fontFamily=Liberation Serif;fontColor=#333333;spacing=3.8;strokeColor=#5E5E5E;rounded=1;absoluteArcSize=1;arcSize=9;strokeWidth=2.3;" vertex="1" parent="WIyWlLk6GJQsqaUBKTNV-1">
            <mxGeometry x="855" y="480" width="60" height="60" as="geometry" />
          </mxCell>
        </UserObject>
        <UserObject label="취소" lucidchartObjectId="pDWNdVCs~D7K" id="LHgCffm70DckrtsDiC9W-94">
          <mxCell style="html=1;overflow=block;blockSpacing=1;whiteSpace=wrap;;whiteSpace=wrap;fontSize=16.7;fontFamily=Liberation Serif;fontColor=#333333;spacing=3.8;strokeColor=#5e5e5e;strokeOpacity=100;rounded=1;absoluteArcSize=1;arcSize=9;strokeWidth=2.3;" vertex="1" parent="WIyWlLk6GJQsqaUBKTNV-1">
            <mxGeometry x="495" y="480" width="60" height="60" as="geometry" />
          </mxCell>
        </UserObject>
        <UserObject label="숫자 컨버터" lucidchartObjectId="pDWNcTIIC2K_" id="LHgCffm70DckrtsDiC9W-95">
          <mxCell style="html=1;overflow=block;blockSpacing=1;whiteSpace=wrap;;whiteSpace=wrap;fontSize=16.7;fontFamily=Liberation Serif;fontColor=#333333;spacing=3.8;strokeColor=#5e5e5e;strokeOpacity=100;rounded=1;absoluteArcSize=1;arcSize=9;strokeWidth=2.3;" vertex="1" parent="WIyWlLk6GJQsqaUBKTNV-1">
            <mxGeometry x="675" y="480" width="60" height="60" as="geometry" />
          </mxCell>
        </UserObject>
        <UserObject label="숫자" lucidchartObjectId="RDWNTMhx3S.f" id="LHgCffm70DckrtsDiC9W-96">
          <mxCell style="html=1;overflow=block;blockSpacing=1;whiteSpace=wrap;;whiteSpace=wrap;fontSize=16.7;fontFamily=Liberation Serif;fontColor=#333333;spacing=3.8;strokeColor=#5E5E5E;rounded=1;absoluteArcSize=1;arcSize=9;strokeWidth=2.3;" vertex="1" parent="WIyWlLk6GJQsqaUBKTNV-1">
            <mxGeometry x="1110" y="480" width="60" height="60" as="geometry" />
          </mxCell>
        </UserObject>
        <UserObject label="+-*/" lucidchartObjectId="RDWNgylKgni7" id="LHgCffm70DckrtsDiC9W-97">
          <mxCell style="html=1;overflow=block;blockSpacing=1;whiteSpace=wrap;;whiteSpace=wrap;fontSize=16.7;fontFamily=Liberation Serif;fontColor=#333333;spacing=3.8;strokeColor=#5E5E5E;rounded=1;absoluteArcSize=1;arcSize=9;strokeWidth=2.3;" vertex="1" parent="WIyWlLk6GJQsqaUBKTNV-1">
            <mxGeometry x="1290" y="480" width="60" height="60" as="geometry" />
          </mxCell>
        </UserObject>
        <UserObject label="=" lucidchartObjectId="RDWNwD.DXgcY" id="LHgCffm70DckrtsDiC9W-98">
          <mxCell style="html=1;overflow=block;blockSpacing=1;whiteSpace=wrap;;whiteSpace=wrap;fontSize=16.7;fontFamily=Liberation Serif;fontColor=#333333;spacing=3.8;strokeColor=#5E5E5E;rounded=1;absoluteArcSize=1;arcSize=9;strokeWidth=2.3;" vertex="1" parent="WIyWlLk6GJQsqaUBKTNV-1">
            <mxGeometry x="1380" y="480" width="60" height="60" as="geometry" />
          </mxCell>
        </UserObject>
        <UserObject label="취소" lucidchartObjectId="RDWNLELBqpMG" id="LHgCffm70DckrtsDiC9W-99">
          <mxCell style="html=1;overflow=block;blockSpacing=1;whiteSpace=wrap;;whiteSpace=wrap;fontSize=16.7;fontFamily=Liberation Serif;fontColor=#333333;spacing=3.8;strokeColor=#5e5e5e;strokeOpacity=100;rounded=1;absoluteArcSize=1;arcSize=9;strokeWidth=2.3;" vertex="1" parent="WIyWlLk6GJQsqaUBKTNV-1">
            <mxGeometry x="1020" y="480" width="60" height="60" as="geometry" />
          </mxCell>
        </UserObject>
        <UserObject label="숫자 컨버터" lucidchartObjectId="RDWNYVXhBpAC" id="LHgCffm70DckrtsDiC9W-100">
          <mxCell style="html=1;overflow=block;blockSpacing=1;whiteSpace=wrap;;whiteSpace=wrap;fontSize=16.7;fontFamily=Liberation Serif;fontColor=#333333;spacing=3.8;strokeColor=#5e5e5e;strokeOpacity=100;rounded=1;absoluteArcSize=1;arcSize=9;strokeWidth=2.3;" vertex="1" parent="WIyWlLk6GJQsqaUBKTNV-1">
            <mxGeometry x="1200" y="480" width="60" height="60" as="geometry" />
          </mxCell>
        </UserObject>
        <UserObject label="숫자" lucidchartObjectId="VDWNOdi5buN4" id="LHgCffm70DckrtsDiC9W-101">
          <mxCell style="html=1;overflow=block;blockSpacing=1;whiteSpace=wrap;;whiteSpace=wrap;fontSize=16.7;fontFamily=Liberation Serif;fontColor=#333333;spacing=3.8;strokeColor=#5E5E5E;rounded=1;absoluteArcSize=1;arcSize=9;strokeWidth=2.3;" vertex="1" parent="WIyWlLk6GJQsqaUBKTNV-1">
            <mxGeometry x="1590" y="480" width="60" height="60" as="geometry" />
          </mxCell>
        </UserObject>
        <UserObject label="+-*/" lucidchartObjectId="VDWNwym2ruTh" id="LHgCffm70DckrtsDiC9W-102">
          <mxCell style="html=1;overflow=block;blockSpacing=1;whiteSpace=wrap;;whiteSpace=wrap;fontSize=16.7;fontFamily=Liberation Serif;fontColor=#333333;spacing=3.8;strokeColor=#5E5E5E;rounded=1;absoluteArcSize=1;arcSize=9;strokeWidth=2.3;" vertex="1" parent="WIyWlLk6GJQsqaUBKTNV-1">
            <mxGeometry x="1770" y="480" width="60" height="60" as="geometry" />
          </mxCell>
        </UserObject>
        <UserObject label="=" lucidchartObjectId="VDWNTohvCk~K" id="LHgCffm70DckrtsDiC9W-103">
          <mxCell style="html=1;overflow=block;blockSpacing=1;whiteSpace=wrap;;whiteSpace=wrap;fontSize=16.7;fontFamily=Liberation Serif;fontColor=#333333;spacing=3.8;strokeColor=#5E5E5E;rounded=1;absoluteArcSize=1;arcSize=9;strokeWidth=2.3;" vertex="1" parent="WIyWlLk6GJQsqaUBKTNV-1">
            <mxGeometry x="1860" y="480" width="60" height="60" as="geometry" />
          </mxCell>
        </UserObject>
        <UserObject label="취소" lucidchartObjectId="VDWNFan4HmiI" id="LHgCffm70DckrtsDiC9W-104">
          <mxCell style="html=1;overflow=block;blockSpacing=1;whiteSpace=wrap;;whiteSpace=wrap;fontSize=16.7;fontFamily=Liberation Serif;fontColor=#333333;spacing=3.8;strokeColor=#5e5e5e;strokeOpacity=100;rounded=1;absoluteArcSize=1;arcSize=9;strokeWidth=2.3;" vertex="1" parent="WIyWlLk6GJQsqaUBKTNV-1">
            <mxGeometry x="1500" y="480" width="60" height="60" as="geometry" />
          </mxCell>
        </UserObject>
        <UserObject label="숫자 컨버터" lucidchartObjectId="VDWNVU_6s1PR" id="LHgCffm70DckrtsDiC9W-105">
          <mxCell style="html=1;overflow=block;blockSpacing=1;whiteSpace=wrap;;whiteSpace=wrap;fontSize=16.7;fontFamily=Liberation Serif;fontColor=#333333;spacing=3.8;strokeColor=#5e5e5e;strokeOpacity=100;rounded=1;absoluteArcSize=1;arcSize=9;strokeWidth=2.3;" vertex="1" parent="WIyWlLk6GJQsqaUBKTNV-1">
            <mxGeometry x="1680" y="480" width="60" height="60" as="geometry" />
          </mxCell>
        </UserObject>
        <UserObject label="" lucidchartObjectId="gEWNYRE~JRFa" id="LHgCffm70DckrtsDiC9W-106">
          <mxCell style="html=1;jettySize=18;whiteSpace=wrap;fontSize=13;strokeColor=#5E5E5E;strokeWidth=1.5;rounded=1;arcSize=12;edgeStyle=orthogonalEdgeStyle;startArrow=none;;endArrow=block;endFill=1;;exitX=0.5;exitY=1.019;exitPerimeter=0;entryX=0.38;entryY=-0.019;entryPerimeter=0;" edge="1" parent="WIyWlLk6GJQsqaUBKTNV-1" source="LHgCffm70DckrtsDiC9W-78" target="LHgCffm70DckrtsDiC9W-95">
            <mxGeometry width="100" height="100" relative="1" as="geometry">
              <Array as="points" />
            </mxGeometry>
          </mxCell>
        </UserObject>
        <UserObject label="" lucidchartObjectId="MEWNzr0UJWp8" id="LHgCffm70DckrtsDiC9W-107">
          <mxCell style="html=1;jettySize=18;whiteSpace=wrap;fontSize=13;strokeColor=#5E5E5E;strokeWidth=1.5;rounded=1;arcSize=12;edgeStyle=orthogonalEdgeStyle;startArrow=none;;endArrow=block;endFill=1;;exitX=0.5;exitY=1.019;exitPerimeter=0;entryX=0.5;entryY=-0.019;entryPerimeter=0;" edge="1" parent="WIyWlLk6GJQsqaUBKTNV-1" source="LHgCffm70DckrtsDiC9W-73" target="LHgCffm70DckrtsDiC9W-83">
            <mxGeometry width="100" height="100" relative="1" as="geometry">
              <Array as="points" />
            </mxGeometry>
          </mxCell>
        </UserObject>
        <UserObject label="" lucidchartObjectId="UEWNK8NKEa57" id="LHgCffm70DckrtsDiC9W-108">
          <mxCell style="html=1;jettySize=18;whiteSpace=wrap;fontSize=13;strokeColor=#5E5E5E;strokeWidth=1.5;rounded=1;arcSize=12;edgeStyle=orthogonalEdgeStyle;startArrow=none;;endArrow=block;endFill=1;;exitX=0.5;exitY=1.019;exitPerimeter=0;entryX=0.5;entryY=-0.019;entryPerimeter=0;" edge="1" parent="WIyWlLk6GJQsqaUBKTNV-1" source="LHgCffm70DckrtsDiC9W-73" target="LHgCffm70DckrtsDiC9W-80">
            <mxGeometry width="100" height="100" relative="1" as="geometry">
              <Array as="points" />
            </mxGeometry>
          </mxCell>
        </UserObject>
        <UserObject label="" lucidchartObjectId="VEWN-JIzgLSH" id="LHgCffm70DckrtsDiC9W-109">
          <mxCell style="html=1;jettySize=18;whiteSpace=wrap;fontSize=13;strokeColor=#5E5E5E;strokeWidth=1.5;rounded=1;arcSize=12;edgeStyle=orthogonalEdgeStyle;startArrow=none;;endArrow=block;endFill=1;;exitX=-0.019;exitY=0.5;exitPerimeter=0;entryX=0.5;entryY=-0.019;entryPerimeter=0;" edge="1" parent="WIyWlLk6GJQsqaUBKTNV-1" source="LHgCffm70DckrtsDiC9W-68" target="LHgCffm70DckrtsDiC9W-104">
            <mxGeometry width="100" height="100" relative="1" as="geometry">
              <Array as="points" />
            </mxGeometry>
          </mxCell>
        </UserObject>
        <UserObject label="" lucidchartObjectId="XEWNRXw2-PNv" id="LHgCffm70DckrtsDiC9W-110">
          <mxCell style="html=1;jettySize=18;whiteSpace=wrap;fontSize=13;strokeColor=#5E5E5E;strokeWidth=1.5;rounded=1;arcSize=12;edgeStyle=orthogonalEdgeStyle;startArrow=none;;endArrow=block;endFill=1;;exitX=0.5;exitY=1.019;exitPerimeter=0;entryX=0.5;entryY=-0.019;entryPerimeter=0;" edge="1" parent="WIyWlLk6GJQsqaUBKTNV-1" source="LHgCffm70DckrtsDiC9W-73" target="LHgCffm70DckrtsDiC9W-84">
            <mxGeometry width="100" height="100" relative="1" as="geometry">
              <Array as="points" />
            </mxGeometry>
          </mxCell>
        </UserObject>
        <UserObject label="" lucidchartObjectId="XEWNcOTtr_OQ" id="LHgCffm70DckrtsDiC9W-111">
          <mxCell style="html=1;jettySize=18;whiteSpace=wrap;fontSize=13;strokeColor=#5E5E5E;strokeWidth=1.5;rounded=1;arcSize=12;edgeStyle=orthogonalEdgeStyle;startArrow=none;;endArrow=block;endFill=1;;exitX=0.5;exitY=1.019;exitPerimeter=0;entryX=0.5;entryY=-0.019;entryPerimeter=0;" edge="1" parent="WIyWlLk6GJQsqaUBKTNV-1" source="LHgCffm70DckrtsDiC9W-68" target="LHgCffm70DckrtsDiC9W-105">
            <mxGeometry width="100" height="100" relative="1" as="geometry">
              <Array as="points" />
            </mxGeometry>
          </mxCell>
        </UserObject>
        <UserObject label="" lucidchartObjectId="EEWNwZe2ftB1" id="LHgCffm70DckrtsDiC9W-112">
          <mxCell style="html=1;jettySize=18;whiteSpace=wrap;fontSize=13;strokeColor=#5E5E5E;strokeWidth=1.5;rounded=1;arcSize=12;edgeStyle=orthogonalEdgeStyle;startArrow=none;;endArrow=block;endFill=1;;exitX=-0.019;exitY=0.5;exitPerimeter=0;entryX=0.5;entryY=-0.019;entryPerimeter=0;" edge="1" parent="WIyWlLk6GJQsqaUBKTNV-1" source="LHgCffm70DckrtsDiC9W-78" target="LHgCffm70DckrtsDiC9W-94">
            <mxGeometry width="100" height="100" relative="1" as="geometry">
              <Array as="points" />
            </mxGeometry>
          </mxCell>
        </UserObject>
        <UserObject label="" lucidchartObjectId="1EWN1q..oMwO" id="LHgCffm70DckrtsDiC9W-113">
          <mxCell style="html=1;jettySize=18;whiteSpace=wrap;fontSize=13;strokeColor=#5E5E5E;strokeWidth=1.5;rounded=1;arcSize=12;edgeStyle=orthogonalEdgeStyle;startArrow=none;;endArrow=block;endFill=1;;exitX=-0.019;exitY=0.5;exitPerimeter=0;entryX=0.5;entryY=-0.019;entryPerimeter=0;" edge="1" parent="WIyWlLk6GJQsqaUBKTNV-1" source="LHgCffm70DckrtsDiC9W-68" target="LHgCffm70DckrtsDiC9W-101">
            <mxGeometry width="100" height="100" relative="1" as="geometry">
              <Array as="points" />
            </mxGeometry>
          </mxCell>
        </UserObject>
        <UserObject label="" lucidchartObjectId="4EWNiy2Uqg0b" id="LHgCffm70DckrtsDiC9W-114">
          <mxCell style="html=1;jettySize=18;whiteSpace=wrap;fontSize=13;strokeColor=#5E5E5E;strokeWidth=1.5;rounded=1;arcSize=12;edgeStyle=orthogonalEdgeStyle;startArrow=none;;endArrow=block;endFill=1;;exitX=0.5;exitY=1.019;exitPerimeter=0;entryX=0.5;entryY=-0.019;entryPerimeter=0;" edge="1" parent="WIyWlLk6GJQsqaUBKTNV-1" source="LHgCffm70DckrtsDiC9W-73" target="LHgCffm70DckrtsDiC9W-81">
            <mxGeometry width="100" height="100" relative="1" as="geometry">
              <Array as="points" />
            </mxGeometry>
          </mxCell>
        </UserObject>
        <UserObject label="" lucidchartObjectId="IEWNBm-4~p1u" id="LHgCffm70DckrtsDiC9W-115">
          <mxCell style="html=1;jettySize=18;whiteSpace=wrap;fontSize=13;strokeColor=#5E5E5E;strokeWidth=1.5;rounded=1;arcSize=12;edgeStyle=orthogonalEdgeStyle;startArrow=none;;endArrow=block;endFill=1;;exitX=-0.019;exitY=0.5;exitPerimeter=0;entryX=0.5;entryY=-0.019;entryPerimeter=0;" edge="1" parent="WIyWlLk6GJQsqaUBKTNV-1" source="LHgCffm70DckrtsDiC9W-78" target="LHgCffm70DckrtsDiC9W-91">
            <mxGeometry width="100" height="100" relative="1" as="geometry">
              <Array as="points" />
            </mxGeometry>
          </mxCell>
        </UserObject>
        <UserObject label="" lucidchartObjectId="5EWN4HyRW~6H" id="LHgCffm70DckrtsDiC9W-116">
          <mxCell style="html=1;jettySize=18;whiteSpace=wrap;fontSize=13;strokeColor=#5E5E5E;strokeWidth=1.5;rounded=1;arcSize=12;edgeStyle=orthogonalEdgeStyle;startArrow=none;;endArrow=block;endFill=1;;exitX=1.019;exitY=0.5;exitPerimeter=0;entryX=0.5;entryY=-0.019;entryPerimeter=0;" edge="1" parent="WIyWlLk6GJQsqaUBKTNV-1" source="LHgCffm70DckrtsDiC9W-68" target="LHgCffm70DckrtsDiC9W-103">
            <mxGeometry width="100" height="100" relative="1" as="geometry">
              <Array as="points" />
            </mxGeometry>
          </mxCell>
        </UserObject>
        <UserObject label="" lucidchartObjectId="LEWNVd-TC9U5" id="LHgCffm70DckrtsDiC9W-117">
          <mxCell style="html=1;jettySize=18;whiteSpace=wrap;fontSize=13;strokeColor=#5E5E5E;strokeWidth=1.5;rounded=1;arcSize=12;edgeStyle=orthogonalEdgeStyle;startArrow=none;;endArrow=block;endFill=1;;exitX=1.019;exitY=0.5;exitPerimeter=0;entryX=0.5;entryY=-0.019;entryPerimeter=0;" edge="1" parent="WIyWlLk6GJQsqaUBKTNV-1" source="LHgCffm70DckrtsDiC9W-78" target="LHgCffm70DckrtsDiC9W-93">
            <mxGeometry width="100" height="100" relative="1" as="geometry">
              <Array as="points" />
            </mxGeometry>
          </mxCell>
        </UserObject>
        <UserObject label="" lucidchartObjectId="7EWNrCyqBbsp" id="LHgCffm70DckrtsDiC9W-118">
          <mxCell style="html=1;jettySize=18;whiteSpace=wrap;fontSize=13;strokeColor=#5E5E5E;strokeWidth=1.5;rounded=1;arcSize=12;edgeStyle=orthogonalEdgeStyle;startArrow=none;;endArrow=block;endFill=1;;exitX=0.5;exitY=1.019;exitPerimeter=0;entryX=0.5;entryY=-0.019;entryPerimeter=0;" edge="1" parent="WIyWlLk6GJQsqaUBKTNV-1" source="LHgCffm70DckrtsDiC9W-73" target="LHgCffm70DckrtsDiC9W-82">
            <mxGeometry width="100" height="100" relative="1" as="geometry">
              <Array as="points" />
            </mxGeometry>
          </mxCell>
        </UserObject>
        <UserObject label="" lucidchartObjectId="NEWNatX10Vh6" id="LHgCffm70DckrtsDiC9W-119">
          <mxCell style="html=1;jettySize=18;whiteSpace=wrap;fontSize=13;strokeColor=#5E5E5E;strokeWidth=1.5;rounded=1;arcSize=12;edgeStyle=orthogonalEdgeStyle;startArrow=none;;endArrow=block;endFill=1;;exitX=1.019;exitY=0.5;exitPerimeter=0;entryX=0.5;entryY=-0.019;entryPerimeter=0;" edge="1" parent="WIyWlLk6GJQsqaUBKTNV-1" source="LHgCffm70DckrtsDiC9W-78" target="LHgCffm70DckrtsDiC9W-92">
            <mxGeometry width="100" height="100" relative="1" as="geometry">
              <Array as="points" />
            </mxGeometry>
          </mxCell>
        </UserObject>
      </root>
    </mxGraphModel>
  </diagram>
</mxfile>
